<?xml version="1.0" encoding="utf-8"?>
<!-- Generator: Adobe Illustrator 24.3.0, SVG Export Plug-In . SVG Version: 6.00 Build 0)  -->
<svg version="1.1" id="Layer_1" xmlns="http://www.w3.org/2000/svg" xmlns:xlink="http://www.w3.org/1999/xlink" x="0px" y="0px"
	 viewBox="0 0 800 800" enable-background="new 0 0 800 800" xml:space="preserve">
<g>
	
		<ellipse transform="matrix(0.1602 -0.9871 0.9871 0.1602 50.2111 825.1027)" fill="#F16235" cx="510.002" cy="383.043" rx="122.921" ry="122.92"/>
	<path fill="#58C7DE" d="M589.265,390.614c0,0.006,0,0.012-0.001,0.018c-0.075,0.794-0.206,1.57-0.305,2.357
		c-0.002,0.02-0.006,0.038-0.009,0.058c-0.211,1.668-0.447,3.326-0.759,4.96c-0.001,0.008-0.002,0.015-0.003,0.023
		c-0.173,0.908-0.382,1.801-0.585,2.698c-0.003,0.011-0.006,0.022-0.009,0.033c-0.343,1.502-0.722,2.988-1.149,4.457
		c-0.003,0.009-0.005,0.019-0.007,0.028c-0.261,0.898-0.529,1.789-0.821,2.674c-0.003,0.009-0.007,0.017-0.01,0.026
		c-0.485,1.467-1.024,2.907-1.591,4.336c-0.006,0.014-0.01,0.029-0.015,0.042c-0.321,0.808-0.623,1.622-0.97,2.417
		c-0.002,0.006-0.006,0.011-0.008,0.017c-0.707,1.621-1.488,3.199-2.298,4.762c-0.011,0.022-0.021,0.045-0.033,0.067
		c-0.28,0.54-0.524,1.099-0.817,1.632c-0.003,0.005-0.006,0.009-0.009,0.014c-1.135,2.067-2.358,4.077-3.666,6.028
		c-0.003,0.004-0.005,0.008-0.008,0.012c-0.381,0.569-0.808,1.102-1.204,1.66c-0.794,1.122-1.568,2.259-2.419,3.337
		c0,0-0.001-0.001-0.001-0.001c0,0,0,0.001,0,0.001c-0.002-0.002-0.003-0.005-0.005-0.007c-0.011-0.014-0.027-0.026-0.036-0.04
		c-3.88,4.921-8.336,9.361-13.244,13.254c0.012,0.022,0.025,0.042,0.037,0.064c-0.681,0.538-1.408,1.015-2.105,1.531
		c-0.382,0.283-0.767,0.562-1.153,0.838c-1.002,0.714-2.007,1.421-3.042,2.088c-0.137,0.089-0.281,0.167-0.418,0.255
		c-1.931,1.228-3.918,2.368-5.955,3.43c-0.819,0.428-1.642,0.844-2.477,1.243c-0.815,0.389-1.629,0.779-2.459,1.141
		c-1.546,0.677-3.112,1.315-4.707,1.894c-0.593,0.214-1.199,0.396-1.798,0.597c-1.286,0.432-2.586,0.834-3.901,1.202
		c-0.641,0.179-1.281,0.357-1.929,0.519c-1.828,0.461-3.675,0.877-5.55,1.207c-0.284,0.05-0.575,0.08-0.861,0.127
		c-1.713,0.283-3.446,0.503-5.195,0.674c-0.548,0.053-1.097,0.104-1.649,0.146c-2.02,0.155-4.053,0.262-6.111,0.263
		c-0.003,0-0.007,0-0.01,0c-0.001,0-0.001,0-0.002,0c-0.001,0-0.002,0-0.003,0c-2.067,0-4.107-0.108-6.134-0.264
		c-0.54-0.041-1.077-0.091-1.614-0.143c-1.777-0.173-3.539-0.396-5.279-0.684c-0.258-0.043-0.521-0.07-0.778-0.115
		c-1.897-0.334-3.764-0.754-5.612-1.221c-0.613-0.155-1.22-0.323-1.827-0.492c-1.374-0.382-2.73-0.801-4.073-1.254
		c-0.548-0.184-1.104-0.35-1.646-0.547c-1.627-0.589-3.225-1.241-4.801-1.932c-0.783-0.342-1.548-0.708-2.317-1.074
		c-0.905-0.433-1.799-0.884-2.686-1.349c-0.955-0.5-1.904-1.005-2.836-1.542c-1.178-0.68-2.341-1.383-3.48-2.121
		c-0.968-0.626-1.907-1.288-2.846-1.954c-0.478-0.339-0.952-0.683-1.421-1.033c-0.651-0.483-1.332-0.928-1.967-1.43
		c0.011-0.02,0.024-0.039,0.035-0.06c-4.91-3.893-9.367-8.333-13.247-13.255c-0.01,0.015-0.03,0.029-0.04,0.045
		c-0.001,0-0.001-0.001-0.001-0.001c-0.001,0-0.001,0.001-0.001,0.001c-10.685-13.55-17.071-30.641-17.078-49.198
		c0-0.008-0.001-0.017-0.001-0.025c0,0,0-0.001,0-0.002c0-0.001,0-0.002,0-0.003c0-17.116,5.48-32.947,14.703-45.945
		c0.779-1.102,1.541-2.218,2.376-3.277c0.01,0.016,0.032,0.031,0.042,0.046c0.84-1.066,1.71-2.1,2.602-3.121
		c0.362-0.415,0.741-0.815,1.111-1.222c1.453-1.595,2.96-3.132,4.536-4.605c0.548-0.513,1.103-1.016,1.666-1.514
		c1.338-1.182,2.712-2.315,4.128-3.407c0.823-0.636,1.65-1.265,2.499-1.87c0.875-0.622,1.752-1.235,2.653-1.821
		c1.449-0.947,2.93-1.848,4.441-2.701c0.772-0.434,1.557-0.843,2.345-1.252c1.543-0.804,3.109-1.568,4.71-2.272
		c0.669-0.293,1.344-0.567,2.022-0.842c1.675-0.682,3.379-1.305,5.107-1.873c0.516-0.169,1.023-0.354,1.543-0.512
		c2.072-0.634,4.185-1.165,6.325-1.63c0.514-0.111,1.027-0.22,1.544-0.321c2.212-0.434,4.451-0.784,6.724-1.029
		c0.399-0.043,0.801-0.069,1.201-0.106c2.431-0.225,4.883-0.374,7.372-0.374c0.001,0,0.002,0,0.002,0c0,0,0,0,0,0
		c0.001,0,0.001,0,0.001,0c2.491,0,4.946,0.148,7.379,0.374c0.398,0.037,0.797,0.063,1.192,0.106
		c2.277,0.246,4.521,0.596,6.737,1.031c0.51,0.1,1.016,0.207,1.523,0.317c2.147,0.466,4.269,0.999,6.348,1.636
		c0.508,0.155,1.003,0.336,1.505,0.5c1.751,0.575,3.475,1.205,5.171,1.896c0.643,0.261,1.284,0.519,1.919,0.796
		c1.632,0.716,3.229,1.496,4.802,2.317c0.772,0.402,1.542,0.802,2.3,1.228c1.525,0.86,3.019,1.769,4.481,2.725
		c0.882,0.576,1.742,1.176,2.6,1.785c0.891,0.634,1.761,1.294,2.625,1.964c1.365,1.055,2.69,2.151,3.983,3.291
		c0.594,0.525,1.18,1.056,1.758,1.598c1.518,1.421,2.97,2.901,4.374,4.436c0.421,0.461,0.849,0.916,1.26,1.386
		c0.876,1.004,1.731,2.02,2.557,3.068c0.005,0.006,0.009,0.011,0.014,0.016c0.01-0.015,0.029-0.029,0.04-0.045
		c0.802,1.017,1.529,2.091,2.281,3.147c0.015,0.021,0.03,0.041,0.045,0.062c0.433,0.609,0.898,1.192,1.315,1.813
		c0.002,0.004,0.006,0.008,0.008,0.012c1.295,1.934,2.509,3.927,3.634,5.976c0.002,0.005,0.005,0.01,0.007,0.014
		c0.324,0.59,0.596,1.208,0.905,1.807c0.015,0.029,0.029,0.059,0.044,0.087c0.772,1.498,1.522,3.008,2.2,4.559
		c0.003,0.007,0.005,0.013,0.008,0.02c0.362,0.829,0.678,1.679,1.012,2.523c0.006,0.013,0.011,0.025,0.016,0.038
		c0.552,1.395,1.078,2.798,1.551,4.23c0.002,0.007,0.004,0.014,0.006,0.022c0.301,0.911,0.578,1.83,0.846,2.755
		c0.003,0.01,0.006,0.019,0.009,0.029c0.418,1.44,0.789,2.897,1.126,4.369c0.003,0.012,0.006,0.023,0.008,0.035
		c0.211,0.921,0.423,1.838,0.601,2.77c0.001,0.007,0.003,0.015,0.004,0.022c0.306,1.605,0.537,3.232,0.745,4.868
		c0.002,0.019,0.005,0.038,0.007,0.057c0.103,0.816,0.238,1.62,0.316,2.443c0.001,0.006,0.002,0.011,0.002,0.016
		c0.229,2.42,0.366,4.865,0.372,7.342c0.001,0.07,0.011,0.137,0.011,0.206c0,0.06-0.009,0.118-0.009,0.178
		C589.635,385.716,589.496,388.178,589.265,390.614z"/>
	<path d="M88.165,746.106c15.801,4.681,35.444,2.066,51.6,2.066c35.449,0,70.898,0,106.346,0c77.354,0,154.71,0,232.064,0
		c16.585,0,36.783,2.742,53.012-2.066c41.144-12.19,35.852-55.891,35.852-89.412c0-34.768,0-69.537,0-104.306
		c0-11.938-18.553-11.958-18.553,0c0,47.876,3.229,96.988,0,144.788c-2.193,32.47-28.897,32.443-52.747,32.443
		c-65.858,0-131.716,0-197.575,0c-61.665,0-123.33,0-184.995,0c-22.041,0-40.982-8.543-42.304-34.15c-0.77-14.904,0-30.055,0-44.973
		c0-141.583,0-283.165,0-424.747c0-40.435-2.704-81.914,0-122.283c1.957-29.225,25.043-32.478,47.602-32.478
		c26.442,0,52.885,0,79.327,0c75.241,0,150.483,0,225.724,0c26.101,0,52.202,0,78.302,0c4.808,0,9.75-0.331,14.549,0
		c24.145,1.665,32.116,20.319,32.116,41.333c0,30.333,0,60.666,0,90.999c0,11.938,18.553,11.958,18.553,0
		c0-31.469,0.389-62.967,0-94.434c-0.219-17.703-4.362-33.429-18.66-45.148c-17.039-13.965-39.102-11.302-59.613-11.302
		c-74.939,0-149.878,0-224.817,0c-53.513,0-108.061-3.113-161.505,0c-60.085,3.5-50.131,68.251-50.131,110.24
		c0,154.364,0,308.728,0,463.092C52.313,663.917,39.819,731.784,88.165,746.106z"/>
	<path d="M430.191,156.798c11.94,0.042,11.956-18.511,0-18.553c-30.273-0.107-60.547-0.215-90.821-0.322
		c-11.939-0.042-11.956,18.51,0,18.553C369.644,156.583,399.918,156.69,430.191,156.798z"/>
	<path d="M318.752,140.553c-3.469-3.307-8.961-3.177-12.268,0.292c-3.306,3.468-3.176,8.961,0.292,12.268
		c3.468,3.307,8.961,3.177,12.268-0.292S322.22,143.86,318.752,140.553z"/>
	<path d="M484.835,188.743c-48.489-0.107-96.976-0.215-145.465-0.322c-11.939-0.027-11.956,18.526,0,18.553
		c48.489,0.107,96.976,0.215,145.465,0.322C496.774,207.323,496.792,188.77,484.835,188.743z"/>
	<path d="M318.752,191.052c-3.469-3.307-8.961-3.177-12.268,0.292c-3.306,3.468-3.176,8.961,0.292,12.268
		c3.468,3.307,8.961,3.177,12.268-0.292S322.22,194.359,318.752,191.052z"/>
	<path d="M153.479,259.785h68.618c15.568,0,28.237-12.669,28.237-28.237V162.93c0-15.568-12.669-28.237-28.237-28.237h-68.618
		c-15.568,0-28.237,12.669-28.237,28.237v68.618C125.241,247.116,137.911,259.785,153.479,259.785z M143.794,162.93
		c0-5.34,4.344-9.684,9.684-9.684h68.618c5.34,0,9.684,4.344,9.684,9.684v68.618c0,5.34-4.344,9.684-9.684,9.684h-68.618
		c-5.34,0-9.684-4.344-9.684-9.684V162.93z"/>
	<path d="M430.191,544.372c-30.273-0.108-60.547-0.215-90.821-0.322c-11.939-0.042-11.956,18.511,0,18.553
		c30.274,0.107,60.548,0.215,90.821,0.322C442.131,562.967,442.147,544.414,430.191,544.372z"/>
	<path d="M318.752,546.68c-3.469-3.307-8.961-3.177-12.268,0.292c-3.306,3.468-3.176,8.961,0.292,12.268
		c3.468,3.307,8.961,3.177,12.268-0.292S322.22,549.987,318.752,546.68z"/>
	<path d="M484.835,594.87c-48.489-0.107-96.976-0.215-145.465-0.322c-11.939-0.026-11.956,18.526,0,18.553
		c48.489,0.107,96.976,0.215,145.465,0.322C496.774,613.449,496.792,594.896,484.835,594.87z"/>
	<path d="M318.752,597.178c-3.469-3.307-8.961-3.177-12.268,0.292c-3.306,3.468-3.176,8.961,0.292,12.268
		c3.468,3.307,8.961,3.177,12.268-0.292S322.22,600.486,318.752,597.178z"/>
	<path d="M339.37,644.862c-11.939-0.026-11.956,18.526,0,18.553c48.489,0.107,96.976,0.215,145.465,0.322
		c11.939,0.026,11.956-18.527,0-18.553C436.346,645.076,387.859,644.969,339.37,644.862z"/>
	<path d="M306.483,647.784c-3.306,3.468-3.176,8.961,0.292,12.268c3.468,3.307,8.961,3.177,12.268-0.292
		c3.307-3.468,3.177-8.961-0.292-12.268C315.283,644.185,309.791,644.315,306.483,647.784z"/>
	<path d="M153.479,540.821c-15.568,0-28.237,12.669-28.237,28.237v68.613c0,15.573,12.669,28.242,28.237,28.242h68.618
		c15.568,0,28.237-12.669,28.237-28.242v-68.613c0-15.568-12.669-28.237-28.237-28.237H153.479z M231.781,569.058v68.613
		c0,5.34-4.344,9.689-9.684,9.689h-68.618c-5.34,0-9.684-4.348-9.684-9.689v-68.613c0-5.34,4.344-9.684,9.684-9.684h68.618
		C227.437,559.374,231.781,563.718,231.781,569.058z"/>
	<path d="M284.62,441.066c-31.82-0.107-63.64-0.215-95.459-0.322c-11.94-0.04-11.956,18.512,0,18.553
		c31.82,0.107,63.639,0.215,95.459,0.322C296.56,459.659,296.576,441.106,284.62,441.066z"/>
	<path d="M305.239,456.988c3.468,3.307,8.961,3.177,12.268-0.291c3.307-3.468,3.176-8.961-0.292-12.268
		c-3.468-3.307-8.96-3.177-12.267,0.292C301.64,448.189,301.771,453.681,305.239,456.988z"/>
	<path d="M284.62,390.567c-50.035-0.108-100.069-0.215-150.104-0.322c-11.939-0.026-11.956,18.527,0,18.553
		c50.035,0.107,100.069,0.215,150.104,0.322C296.559,409.146,296.577,390.593,284.62,390.567z"/>
	<path d="M305.239,406.49c3.468,3.307,8.961,3.177,12.268-0.292c3.307-3.468,3.176-8.961-0.292-12.268
		c-3.468-3.307-8.96-3.177-12.267,0.292C301.64,397.69,301.771,403.182,305.239,406.49z"/>
	<path d="M284.62,340.254c-50.035-0.108-100.069-0.215-150.104-0.322c-11.939-0.026-11.956,18.527,0,18.553
		c50.035,0.107,100.069,0.215,150.104,0.322C296.559,358.832,296.577,340.279,284.62,340.254z"/>
	<path d="M317.507,355.884c3.307-3.468,3.176-8.961-0.292-12.268c-3.468-3.307-8.96-3.177-12.267,0.292
		c-3.308,3.468-3.177,8.961,0.291,12.268C308.707,359.483,314.199,359.353,317.507,355.884z"/>
	<path d="M510.001,285.278c-53.912,0-97.77,43.857-97.77,97.765c0,27.982,11.82,53.253,30.725,71.092
		c0.323,0.35,0.668,0.677,1.049,0.973c17.406,15.951,40.58,25.705,65.997,25.705c25.413,0,48.591-9.754,65.998-25.705
		c0.376-0.296,0.72-0.623,1.043-0.973c18.906-17.84,30.724-43.11,30.724-71.092C607.767,329.135,563.91,285.278,510.001,285.278z
		 M589.265,390.614c0,0.006,0,0.012-0.001,0.018c-0.075,0.794-0.206,1.57-0.305,2.357c-0.002,0.02-0.006,0.038-0.009,0.058
		c-0.211,1.668-0.447,3.326-0.759,4.96c-0.001,0.008-0.002,0.015-0.003,0.023c-0.173,0.908-0.382,1.801-0.585,2.698
		c-0.003,0.011-0.006,0.022-0.009,0.033c-0.343,1.502-0.722,2.988-1.149,4.457c-0.003,0.009-0.005,0.019-0.007,0.028
		c-0.261,0.898-0.529,1.789-0.821,2.674c-0.003,0.009-0.007,0.017-0.01,0.026c-0.485,1.467-1.024,2.907-1.591,4.336
		c-0.006,0.014-0.01,0.029-0.015,0.042c-0.321,0.808-0.623,1.622-0.97,2.417c-0.002,0.006-0.006,0.011-0.008,0.017
		c-0.707,1.621-1.488,3.199-2.298,4.762c-0.011,0.022-0.021,0.045-0.033,0.067c-0.28,0.54-0.524,1.099-0.817,1.632
		c-0.003,0.005-0.006,0.009-0.009,0.014c-1.135,2.067-2.358,4.077-3.666,6.028c-0.003,0.004-0.005,0.008-0.008,0.012
		c-0.381,0.569-0.808,1.102-1.204,1.66c-0.794,1.122-1.568,2.259-2.419,3.337c0,0-0.001-0.001-0.001-0.001c0,0,0,0.001,0,0.001
		c-0.002-0.002-0.003-0.005-0.005-0.007c-0.011-0.014-0.027-0.026-0.036-0.04c-3.88,4.921-8.336,9.361-13.244,13.254
		c0.012,0.022,0.025,0.042,0.037,0.064c-0.681,0.538-1.408,1.015-2.105,1.531c-0.382,0.283-0.767,0.562-1.153,0.838
		c-1.002,0.714-2.007,1.421-3.042,2.088c-0.137,0.089-0.281,0.167-0.418,0.255c-1.931,1.228-3.918,2.368-5.955,3.43
		c-0.819,0.428-1.642,0.844-2.477,1.243c-0.815,0.389-1.629,0.779-2.459,1.141c-1.546,0.677-3.112,1.315-4.707,1.894
		c-0.593,0.214-1.199,0.396-1.798,0.597c-1.286,0.432-2.586,0.834-3.901,1.202c-0.641,0.179-1.281,0.357-1.929,0.519
		c-1.828,0.461-3.675,0.877-5.55,1.207c-0.284,0.05-0.575,0.08-0.861,0.127c-1.713,0.283-3.446,0.503-5.195,0.674
		c-0.548,0.053-1.097,0.104-1.649,0.146c-2.02,0.155-4.053,0.262-6.111,0.263c-0.003,0-0.007,0-0.01,0c-0.001,0-0.001,0-0.002,0
		c-0.001,0-0.002,0-0.003,0c-2.067,0-4.107-0.108-6.134-0.264c-0.54-0.041-1.077-0.091-1.614-0.143
		c-1.777-0.173-3.539-0.396-5.279-0.684c-0.258-0.043-0.521-0.07-0.778-0.115c-1.897-0.334-3.764-0.754-5.612-1.221
		c-0.613-0.155-1.22-0.323-1.827-0.492c-1.374-0.382-2.73-0.801-4.073-1.254c-0.548-0.184-1.104-0.35-1.646-0.547
		c-1.627-0.589-3.225-1.241-4.801-1.932c-0.783-0.342-1.548-0.708-2.317-1.074c-0.905-0.433-1.799-0.884-2.686-1.349
		c-0.955-0.5-1.904-1.005-2.836-1.542c-1.178-0.68-2.341-1.383-3.48-2.121c-0.968-0.626-1.907-1.288-2.846-1.954
		c-0.478-0.339-0.952-0.683-1.421-1.033c-0.651-0.483-1.332-0.928-1.967-1.43c0.011-0.02,0.024-0.039,0.035-0.06
		c-4.91-3.893-9.367-8.333-13.247-13.255c-0.01,0.015-0.03,0.029-0.04,0.045c-0.001,0-0.001-0.001-0.001-0.001
		c-0.001,0-0.001,0.001-0.001,0.001c-10.685-13.55-17.071-30.641-17.078-49.198c0-0.008-0.001-0.017-0.001-0.025
		c0,0,0-0.001,0-0.002c0-0.001,0-0.002,0-0.003c0-17.116,5.48-32.947,14.703-45.945c0.779-1.102,1.541-2.218,2.376-3.277
		c0.01,0.016,0.032,0.031,0.042,0.046c0.84-1.066,1.71-2.1,2.602-3.121c0.362-0.415,0.741-0.815,1.111-1.222
		c1.453-1.595,2.96-3.132,4.536-4.605c0.548-0.513,1.103-1.016,1.666-1.514c1.338-1.182,2.712-2.315,4.128-3.407
		c0.823-0.636,1.65-1.265,2.499-1.87c0.875-0.622,1.752-1.235,2.653-1.821c1.449-0.947,2.93-1.848,4.441-2.701
		c0.772-0.434,1.557-0.843,2.345-1.252c1.543-0.804,3.109-1.568,4.71-2.272c0.669-0.293,1.344-0.567,2.022-0.842
		c1.675-0.682,3.379-1.305,5.107-1.873c0.516-0.169,1.023-0.354,1.543-0.512c2.072-0.634,4.185-1.165,6.325-1.63
		c0.514-0.111,1.027-0.22,1.544-0.321c2.212-0.434,4.451-0.784,6.724-1.029c0.399-0.043,0.801-0.069,1.201-0.106
		c2.431-0.225,4.883-0.374,7.372-0.374c0.001,0,0.002,0,0.002,0c0,0,0,0,0,0c0.001,0,0.001,0,0.001,0
		c2.491,0,4.946,0.148,7.379,0.374c0.398,0.037,0.797,0.063,1.192,0.106c2.277,0.246,4.521,0.596,6.737,1.031
		c0.51,0.1,1.016,0.207,1.523,0.317c2.147,0.466,4.269,0.999,6.348,1.636c0.508,0.155,1.003,0.336,1.505,0.5
		c1.751,0.575,3.475,1.205,5.171,1.896c0.643,0.261,1.284,0.519,1.919,0.796c1.632,0.716,3.229,1.496,4.802,2.317
		c0.772,0.402,1.542,0.802,2.3,1.228c1.525,0.86,3.019,1.769,4.481,2.725c0.882,0.576,1.742,1.176,2.6,1.785
		c0.891,0.634,1.761,1.294,2.625,1.964c1.365,1.055,2.69,2.151,3.983,3.291c0.594,0.525,1.18,1.056,1.758,1.598
		c1.518,1.421,2.97,2.901,4.374,4.436c0.421,0.461,0.849,0.916,1.26,1.386c0.876,1.004,1.731,2.02,2.557,3.068
		c0.005,0.006,0.009,0.011,0.014,0.016c0.01-0.015,0.029-0.029,0.04-0.045c0.802,1.017,1.529,2.091,2.281,3.147
		c0.015,0.021,0.03,0.041,0.045,0.062c0.433,0.609,0.898,1.192,1.315,1.813c0.002,0.004,0.006,0.008,0.008,0.012
		c1.295,1.934,2.509,3.927,3.634,5.976c0.002,0.005,0.005,0.01,0.007,0.014c0.324,0.59,0.596,1.208,0.905,1.807
		c0.015,0.029,0.029,0.059,0.044,0.087c0.772,1.498,1.522,3.008,2.2,4.559c0.003,0.007,0.005,0.013,0.008,0.02
		c0.362,0.829,0.678,1.679,1.012,2.523c0.006,0.013,0.011,0.025,0.016,0.038c0.552,1.395,1.078,2.798,1.551,4.23
		c0.002,0.007,0.004,0.014,0.006,0.022c0.301,0.911,0.578,1.83,0.846,2.755c0.003,0.01,0.006,0.019,0.009,0.029
		c0.418,1.44,0.789,2.897,1.126,4.369c0.003,0.012,0.006,0.023,0.008,0.035c0.211,0.921,0.423,1.838,0.601,2.77
		c0.001,0.007,0.003,0.015,0.004,0.022c0.306,1.605,0.537,3.232,0.745,4.868c0.002,0.019,0.005,0.038,0.007,0.057
		c0.103,0.816,0.238,1.62,0.316,2.443c0.001,0.006,0.002,0.011,0.002,0.016c0.229,2.42,0.366,4.865,0.372,7.342
		c0.001,0.07,0.011,0.137,0.011,0.206c0,0.06-0.009,0.118-0.009,0.178C589.635,385.716,589.496,388.178,589.265,390.614z"/>
	<path d="M738.879,562.393l-53.775-53.776c-3.539-3.534-9.275-3.534-12.81,0c-3.539,3.539-3.539,9.277,0,12.815l53.775,53.774
		c3.189,3.189,4.95,7.435,4.95,11.952c0,4.516-1.761,8.758-4.95,11.951c-6.591,6.592-17.318,6.592-23.908,0L597.018,493.968
		c32.874-25.845,54.023-65.961,54.023-110.925c0-77.767-63.271-141.039-141.039-141.039c-77.771,0-141.038,63.272-141.038,141.039
		c0,77.771,63.267,141.039,141.038,141.039c26.209,0,50.763-7.193,71.814-19.698l107.536,107.536
		c6.825,6.829,15.796,10.245,24.762,10.245c8.971,0,17.937-3.415,24.766-10.245c6.613-6.613,10.258-15.407,10.258-24.762
		C749.138,577.804,745.493,569.01,738.879,562.393z M510.001,505.964c-67.779,0-122.92-55.142-122.92-122.921
		c0-67.78,55.141-122.921,122.92-122.921c67.78,0,122.921,55.141,122.921,122.921C632.923,450.822,577.782,505.964,510.001,505.964z
		"/>
	<path d="M643.782,480.105c-1.694,1.685-2.654,4.02-2.654,6.405c0,2.379,0.96,4.72,2.654,6.4c1.685,1.685,4.012,2.654,6.405,2.659
		c2.38,0,4.719-0.974,6.404-2.659c1.686-1.681,2.654-4.021,2.654-6.4c0-2.385-0.968-4.72-2.654-6.405
		c-1.685-1.686-4.024-2.654-6.404-2.654C647.794,477.451,645.467,478.419,643.782,480.105z"/>
	<path d="M540.127,418.455l-40.347-71.517c-1.239-2.201-2.831-4.638-6.061-5.676c-2.994-0.951-6.122-0.476-8.588,1.327
		c-2.428,1.771-3.825,4.552-3.841,7.637c-0.111,2.414,0.967,4.33,1.837,5.87l40.58,71.802c0.38,0.688,0.768,1.372,1.214,2.016
		c1.862,2.686,4.797,4.154,7.829,4.154c1.465,0,2.953-0.34,4.353-1.055c3.907-1.998,6.543-7.374,4.246-12.203
		C540.968,420.009,540.562,419.221,540.127,418.455z"/>
	<path d="M481.262,391.178h-0.011c-0.007,0-0.014,0-0.018,0c-6.321,0-12.234,2.432-16.651,6.853
		c-4.539,4.543-7.032,10.69-7.021,17.307c0.018,12.606,10.839,23.273,23.631,23.291c0.014,0,0.027,0,0.038,0
		c6.425,0,12.422-2.478,16.893-6.98c4.493-4.525,6.937-10.599,6.88-17.09C504.888,401.528,494.461,391.26,481.262,391.178z
		 M481.278,419.592c-0.002,0-0.002,0-0.005,0c-1.309,0-2.536-0.512-3.458-1.44c-0.872-0.874-1.345-2.016-1.336-3.211
		c0.02-2.614,2.201-4.828,4.763-4.842c0.007,0,0.014,0,0.02,0c1.23,0,2.405,0.498,3.313,1.409c0.913,0.915,1.411,2.102,1.402,3.343
		C485.957,417.59,483.98,419.588,481.278,419.592z"/>
	<path d="M538.785,328.19c-6.359,0.073-12.404,2.333-16.773,6.699c-4.5,4.493-7.059,10.817-7.023,17.353
		c-0.005,6.169,2.475,12.021,6.982,16.487c4.491,4.448,10.366,6.885,16.565,6.885c0.086,0,0.17,0,0.256,0
		c6.513-0.068,12.513-2.595,16.893-7.116c4.425-4.566,6.885-10.889,6.749-17.344C562.194,339.945,553.284,328.29,538.785,328.19z
		 M538.814,356.654c-1.248,0.027-2.494-0.449-3.427-1.35c-0.913-0.883-1.42-2.038-1.434-3.257c-0.029-2.731,1.945-4.815,4.595-4.847
		l0.183-0.009c0.097-0.009,0.195-0.013,0.292-0.013c0.969,0,2.009,0.426,2.836,1.173c0.985,0.892,1.554,2.124,1.565,3.379
		C543.448,354.43,541.421,356.591,538.814,356.654z"/>
	<path fill="#58C7DE" d="M143.794,162.93c0-5.34,4.344-9.684,9.684-9.684h68.618c5.34,0,9.684,4.344,9.684,9.684v68.618
		c0,5.34-4.344,9.684-9.684,9.684h-68.618c-5.34,0-9.684-4.344-9.684-9.684V162.93z"/>
	<path fill="#F16235" d="M231.781,569.058v68.613c0,5.34-4.344,9.689-9.684,9.689h-68.618c-5.34,0-9.684-4.348-9.684-9.689v-68.613
		c0-5.34,4.344-9.684,9.684-9.684h68.618C227.437,559.374,231.781,563.718,231.781,569.058z"/>
</g>
</svg>
